<?xml version="1.0" encoding="UTF-8" standalone="no"?>
<svg
   xmlns:dc="http://purl.org/dc/elements/1.1/"
   xmlns:cc="http://creativecommons.org/ns#"
   xmlns:rdf="http://www.w3.org/1999/02/22-rdf-syntax-ns#"
   xmlns:svg="http://www.w3.org/2000/svg"
   xmlns="http://www.w3.org/2000/svg"
   xmlns:sodipodi="http://sodipodi.sourceforge.net/DTD/sodipodi-0.dtd"
   xmlns:inkscape="http://www.inkscape.org/namespaces/inkscape"
   id="Layer_1"
   enable-background="new 0 0 512.001 512.001"
   height="512"
   viewBox="0 0 512.001 512.001"
   width="512"
   version="1.1"
   sodipodi:docname="2242234.svg"
   inkscape:version="0.92.5 (0.92.5+69)">
  <metadata
     id="metadata11">
    <rdf:RDF>
      <cc:Work
         rdf:about="">
        <dc:format>image/svg+xml</dc:format>
        <dc:type
           rdf:resource="http://purl.org/dc/dcmitype/StillImage" />
      </cc:Work>
    </rdf:RDF>
  </metadata>
  <defs
     id="defs9" />
  <sodipodi:namedview
     pagecolor="#ffffff"
     bordercolor="#666666"
     borderopacity="1"
     objecttolerance="10"
     gridtolerance="10"
     guidetolerance="10"
     inkscape:pageopacity="0"
     inkscape:pageshadow="2"
     inkscape:window-width="774"
     inkscape:window-height="480"
     id="namedview7"
     showgrid="false"
     inkscape:zoom="0.4609375"
     inkscape:cx="256"
     inkscape:cy="256"
     inkscape:window-x="0"
     inkscape:window-y="0"
     inkscape:window-maximized="0"
     inkscape:current-layer="Layer_1" />
  <g
     id="g4"
     style="fill:#ffb606;fill-opacity:1">
    <path
       d="m511.95 360.299c-.348-4.203-2.449-8.066-5.79-10.642l-92.452-71.288c-6.007-4.632-14.527-4.049-19.849 1.356l-7.712 7.834-22.278-18.038-26.302-206.176c-.009-.072-.019-.145-.029-.217-3.384-23.756-24.03-41.67-48.026-41.67-12.99 0-24.794 5.142-33.511 13.485-8.717-8.343-20.521-13.485-33.511-13.485-23.996 0-44.643 17.914-48.026 41.67-.011.072-.021.145-.029.217l-26.302 206.178-22.278 18.038-7.712-7.834c-5.32-5.406-13.842-5.989-19.849-1.356l-92.453 71.287c-3.341 2.575-5.442 6.438-5.79 10.642s1.091 8.359 3.962 11.449l105.957 114.005c2.782 2.993 6.666 4.723 10.753 4.786.078.001.156.002.234.002 4.003 0 7.844-1.601 10.663-4.45l84.661-85.57c5.772-5.834 5.784-15.224.026-21.072l-4.89-4.968 44.583-44.582 44.582 44.582-4.89 4.968c-5.758 5.849-5.746 15.238.026 21.072l84.661 85.57c2.819 2.85 6.66 4.45 10.663 4.45.078 0 .156-.001.234-.002 4.087-.063 7.971-1.793 10.753-4.786l105.957-114.006c2.873-3.089 4.311-7.245 3.964-11.449zm-390.654 93.573-84.111-90.5 68.901-53.13 78.458 79.703zm114.676-146.37-45.6 45.6-43.373-44.061 24.689-19.99c3.003-2.432 4.952-5.928 5.441-9.76l27.047-212.024c1.331-9.02 9.188-15.809 18.313-15.809 10.207 0 18.511 8.304 18.511 18.511v225.393c0 4.586-1.786 8.897-5.028 12.14zm40.058.001c-3.243-3.244-5.029-7.556-5.029-12.142v-225.392c0-10.207 8.304-18.511 18.511-18.511 9.126 0 16.982 6.789 18.313 15.809l27.047 212.024c.489 3.832 2.438 7.328 5.441 9.76l24.689 19.99-43.373 44.061zm114.674 146.369-63.248-63.927 78.458-79.703 68.901 53.13z"
       id="path2"
       style="fill:#ffb606;fill-opacity:1" />
  </g>
</svg>
