<?xml version="1.0" encoding="UTF-8" standalone="no"?>
<svg
   xmlns:dc="http://purl.org/dc/elements/1.1/"
   xmlns:cc="http://creativecommons.org/ns#"
   xmlns:rdf="http://www.w3.org/1999/02/22-rdf-syntax-ns#"
   xmlns:svg="http://www.w3.org/2000/svg"
   xmlns="http://www.w3.org/2000/svg"
   xmlns:sodipodi="http://sodipodi.sourceforge.net/DTD/sodipodi-0.dtd"
   xmlns:inkscape="http://www.inkscape.org/namespaces/inkscape"
   id="man_x5F_preaching"
   enable-background="new 0 0 300 300"
   height="512"
   viewBox="0 0 300 300"
   width="512"
   version="1.1"
   sodipodi:docname="formador.svg"
   inkscape:version="0.92.5 (0.92.5+69)">
  <metadata
     id="metadata19">
    <rdf:RDF>
      <cc:Work
         rdf:about="">
        <dc:format>image/svg+xml</dc:format>
        <dc:type
           rdf:resource="http://purl.org/dc/dcmitype/StillImage" />
      </cc:Work>
    </rdf:RDF>
  </metadata>
  <defs
     id="defs17" />
  <sodipodi:namedview
     pagecolor="#ffffff"
     bordercolor="#666666"
     borderopacity="1"
     objecttolerance="10"
     gridtolerance="10"
     guidetolerance="10"
     inkscape:pageopacity="0"
     inkscape:pageshadow="2"
     inkscape:window-width="1329"
     inkscape:window-height="743"
     id="namedview15"
     showgrid="false"
     inkscape:zoom="0.4609375"
     inkscape:cx="256"
     inkscape:cy="256"
     inkscape:window-x="0"
     inkscape:window-y="0"
     inkscape:window-maximized="1"
     inkscape:current-layer="man_x5F_preaching" />
  <path
     d="m 261.45257,200.69539 -42.3736,-19.26145 v -4.41959 c 20.34076,-9.72577 35.79538,-27.85341 42.07054,-49.68556 3.43067,0.0998 6.78423,-0.85864 9.99957,-2.86041 4.93534,-3.07447 8.27295,-8.08422 8.92692,-13.39836 0.65663,-5.32744 -0.99025,-10.67214 -4.51928,-14.663737 -2.42048,-2.738162 -5.56936,-4.676133 -9.02927,-5.623855 -0.005,-0.937087 -0.002,-2.12938 0.0199,-3.640683 0.0134,-0.94772 -0.0519,-1.887463 -0.1582,-2.823222 0.35092,-0.717769 0.54098,-1.515289 0.54098,-2.334078 V 70.835106 c 0,-25.160448 -11.37129,-45.559698 -32.01913,-57.441427 C 211.54901,-0.0511913 179.4528,-0.6745857 155.2773,11.475643 V 7.7113423 c 0,-2.9362037 -2.38062,-5.3168027 -5.31682,-5.3168027 H 11.723585 c -2.9362074,0 -5.3168053,2.380599 -5.3168053,5.3168027 V 92.780219 c 0,2.936202 2.3805979,5.316802 5.3168053,5.316802 H 58.713504 L 82.75609,118.13205 c 0.974307,0.81216 2.183875,1.23219 3.405434,1.23219 0.764274,0 1.533877,-0.16483 2.252977,-0.50112 1.868847,-0.87592 3.062476,-2.75144 3.062476,-4.81569 V 98.097021 h 21.967713 c -2.30483,3.288449 -3.49313,7.204289 -3.3456,11.307499 0.20072,5.68767 3.42668,11.18125 8.6305,14.69435 3.29244,2.21976 6.64468,3.31502 10.16706,3.2459 5.56271,20.32747 19.00892,37.47017 37.01826,47.82066 0,0.009 -0.002,0.0171 -0.002,0.0265 v 6.24326 l -42.37495,19.26146 c -19.47545,8.85382 -32.060328,28.63363 -32.060328,50.39133 v 43.73072 c 0,2.93623 2.380605,5.31681 5.316809,5.31681 H 288.1994 c 2.93621,0 5.31679,-2.38058 5.31679,-5.31681 V 251.08666 C 293.51519,229.32764 280.93,209.5478 261.45322,200.69531 Z m -68.95764,26.77675 -25.97523,-34.63498 1.06335,-0.48382 c 3.75099,10.1378 13.4874,17.39657 24.91188,17.39657 11.42451,0 21.16089,-7.25877 24.91322,-17.39391 l 1.06336,0.48248 z M 229.60756,22.60903 c 12.17549,7.006219 26.68904,21.061193 26.68904,48.226076 v 8.506889 c -15.97965,11.712924 -34.04615,16.097952 -51.12774,12.34695 -15.06781,-3.307056 -27.55698,-12.680581 -34.26812,-25.716057 -0.77892,-1.5113 -2.23306,-2.560041 -3.91183,-2.820565 -0.27248,-0.04253 -0.54365,-0.06247 -0.81482,-0.06247 -1.40362,0 -2.76206,0.555605 -3.76694,1.5658 -6.84803,6.875956 -16.84498,11.012431 -27.97171,11.690323 -0.009,-2.476301 -0.0358,-5.158629 -0.0637,-7.927354 -0.0281,-2.79664 -0.0574,-5.661069 -0.069,-8.439097 -0.0849,-19.93669 12.17813,-31.258826 22.48075,-37.245549 21.05586,-12.237958 51.68465,-12.289796 72.82423,-0.124948 z M 86.158856,87.463413 c -2.936214,0 -5.316803,2.380599 -5.316803,5.316806 v 9.915831 L 64.04094,88.695582 C 63.086576,87.899391 61.880991,87.463413 60.638187,87.463413 H 17.040388 V 13.028147 H 144.64369 v 3.987604 c 0,0.338948 0.0399,0.667261 0.0998,0.987597 -13.72002,10.416949 -21.14625,25.080697 -21.07449,42.021366 0.0122,2.797969 0.0399,5.683663 0.069,8.500241 0.0491,4.904751 0.0957,9.537017 0.0465,13.12852 -0.003,0.308375 0.0305,0.607444 0.0772,0.902527 l -0.17014,0.0053 c 0.048,1.727961 0.0731,3.385475 0.0838,4.902094 z m 51.959794,32.744867 c -0.30573,-1.49269 -1.23748,-2.78203 -2.55872,-3.541 -1.32121,-0.76162 -2.90696,-0.91714 -4.34648,-0.43066 -2.11342,0.70982 -3.94374,0.79753 -6.53701,-0.95304 -2.358,-1.59105 -3.87329,-3.98892 -3.95438,-6.25787 -0.0784,-2.19052 0.71378,-4.26274 2.2304,-5.83254 1.51796,-1.57244 3.55562,-2.43775 5.7395,-2.43775 l 3.85468,-1.632249 c 1.31724,-1.355794 2.00444,-2.066909 1.87285,-12.135612 11.46702,-0.58352 22.08865,-4.229516 30.4068,-10.412961 8.61057,12.857362 22.16177,22.008916 38.06034,25.499392 4.76253,1.04608 9.5769,1.56182 14.40057,1.56182 13.14049,0 26.33148,-3.845385 38.61463,-11.270302 0.089,3.978294 0.52369,5.412512 1.87018,6.778931 1.00088,1.014181 2.41915,1.610981 3.8414,1.610981 2.28488,0 4.46212,0.98228 5.9774,2.69564 1.53391,1.73461 2.22111,3.97828 1.93268,6.31768 -0.26586,2.15995 -1.75987,4.28002 -3.99691,5.67436 -2.23572,1.393 -4.13516,1.61231 -6.54633,0.76162 -1.44084,-0.50774 -3.02526,-0.37349 -4.35711,0.36952 -1.33319,0.74303 -2.28225,2.02171 -2.60658,3.51176 -5.18121,23.77143 -22.75193,43.18973 -45.85477,50.6771 l -2.35934,0.76563 c -6.50775,2.10813 -13.43823,2.19451 -19.51532,0.23927 -23.5096,-7.56848 -41.20125,-27.32441 -46.16848,-51.55972 z m 42.9106,61.68025 c 4.02615,1.29597 8.21977,1.94329 12.46791,1.94329 4.50998,0 9.08375,-0.72971 13.58445,-2.18919 L 208.44534,181.2 v 1.96589 c 0,8.79532 -7.15508,15.95041 -15.95041,15.95041 -8.79531,0 -15.9504,-7.15509 -15.9504,-15.95041 v -2.87904 c 1.47408,0.57419 2.96676,1.11386 4.48472,1.60168 z M 282.88062,289.50197 H 102.10927 v -38.41522 c 0,-17.59863 10.13781,-33.57961 25.82771,-40.71078 l 28.66953,-13.03149 30.57163,40.7626 v 8.86046 h -5.31682 c -2.93619,0 -5.31679,2.3806 -5.31679,5.31682 0,2.9362 2.3806,5.3168 5.31679,5.3168 h 5.31682 v 15.95041 c 0,2.93621 2.38059,5.31681 5.31679,5.31681 2.93623,0 5.31682,-2.3806 5.31682,-5.31681 v -15.95041 h 5.31681 c 2.9362,0 5.31678,-2.3806 5.31678,-5.3168 0,-2.93622 -2.38058,-5.31682 -5.31678,-5.31682 h -5.31681 v -8.86178 l 30.57163,-40.76261 28.6682,13.03149 c 15.69122,7.1325 25.82904,23.11214 25.82904,40.71211 z"
     id="path2"
     style="fill:#ffb606;fill-opacity:1;stroke-width:1.32920122"
     inkscape:connector-curvature="0" />
  <path
     d="m 48.941217,28.978563 h -5.316804 v -5.316806 c 0,-2.936206 -2.380599,-5.316804 -5.316807,-5.316804 -2.936204,0 -5.316803,2.380598 -5.316803,5.316804 v 5.316806 h -5.316804 c -2.936207,0 -5.316805,2.380598 -5.316805,5.316803 0,2.936205 2.380598,5.316805 5.316805,5.316805 h 5.316804 v 21.267218 c 0,2.936207 2.380599,5.316807 5.316803,5.316807 2.936208,0 5.316807,-2.3806 5.316807,-5.316807 V 39.612171 h 5.316804 c 2.936205,0 5.316804,-2.3806 5.316804,-5.316805 0,-2.936205 -2.380599,-5.316803 -5.316804,-5.316803 z"
     id="path4"
     style="fill:#ffb606;fill-opacity:1;stroke-width:1.32920122"
     inkscape:connector-curvature="0" />
  <path
     d="M 107.42608,23.661757 H 75.525239 c -2.936202,0 -5.316803,2.380601 -5.316803,5.316806 0,2.936204 2.380601,5.316803 5.316803,5.316803 h 31.900841 c 2.93619,0 5.31678,-2.380599 5.31678,-5.316803 0,-2.936205 -2.38059,-5.316806 -5.31678,-5.316806 z"
     id="path6"
     style="fill:#ffb606;fill-opacity:1;stroke-width:1.32920122"
     inkscape:connector-curvature="0" />
  <path
     d="M 107.42608,44.928976 H 75.525239 c -2.936202,0 -5.316803,2.3806 -5.316803,5.316804 0,2.936206 2.380601,5.316806 5.316803,5.316806 h 31.900841 c 2.93619,0 5.31678,-2.3806 5.31678,-5.316806 0,-2.936204 -2.38059,-5.316804 -5.31678,-5.316804 z"
     id="path8"
     style="fill:#ffb606;fill-opacity:1;stroke-width:1.32920122"
     inkscape:connector-curvature="0" />
  <path
     d="M 107.42608,66.196196 H 75.525239 c -2.936202,0 -5.316803,2.380598 -5.316803,5.316803 0,2.936205 2.380601,5.316804 5.316803,5.316804 h 31.900841 c 2.93619,0 5.31678,-2.380599 5.31678,-5.316804 0,-2.936205 -2.38059,-5.316803 -5.31678,-5.316803 z"
     id="path10"
     style="fill:#ffb606;fill-opacity:1;stroke-width:1.32920122"
     inkscape:connector-curvature="0" />
  <path
     d="m 192.59995,154.38073 c 4.18034,0 8.12142,-1.6017 11.12141,-4.52329 2.10414,-2.04828 2.14934,-5.41385 0.10107,-7.51797 -2.04965,-2.10411 -5.41517,-2.14664 -7.51797,-0.10116 -1.00089,0.9743 -2.31548,1.50864 -3.70847,1.50864 -0.0239,0 -0.048,0 -0.0731,0 -1.4196,-0.0187 -2.74615,-0.58883 -3.73771,-1.60701 -2.04964,-2.10544 -5.41518,-2.14798 -7.51797,-0.10106 -2.10414,2.04963 -2.14932,5.41516 -0.10106,7.51928 2.9721,3.05185 6.95437,4.76519 11.2158,4.82102 0.0731,0 0.1449,0.001 0.218,0.001 z"
     id="path12"
     style="fill:#ffb606;fill-opacity:1;stroke-width:1.32920122"
     inkscape:connector-curvature="0" />
</svg>
